<?xml version="1.0" encoding="utf-8"?>
<svg version="1.1" xmlns="http://www.w3.org/2000/svg" xml:space="preserve" width="80" height="80" class="flowchart">
    <g transform="translate(0, 0)">
        <rect x="0" width="10" height="20" stroke="white" />
        <rect x="10" width="10" height="20" stroke="white" />
        <rect x="20" width="10" height="20" stroke="white" />
        <rect x="30" width="10" height="20" stroke="white" />
        <rect x="40" width="10" height="20" stroke="white" />
        <rect x="50" width="10" height="20" stroke="white" />
        <rect x="60" width="10" height="20" stroke="white" />
        <rect x="70" width="10" height="20" stroke="white" />
    </g>

    <g transform="translate(0, 30)">
        <rect x="0" y="0" width="20" height="10" stroke="white" />
        <rect x="0" y="10" width="20" height="10" stroke="white" />
        <rect x="20" y="0" width="20" height="10" stroke="white" />
        <rect x="20" y="10" width="20" height="10" stroke="white" />
        <rect x="40" y="0" width="20" height="10" stroke="white" />
        <rect x="40" y="10" width="20" height="10" stroke="white" />
        <rect x="60" y="0" width="20" height="10" stroke="white" />
        <rect x="60" y="10" width="20" height="10" stroke="white" />
    </g>

    <g transform="translate(0, 60)">
        <rect x="0" y="0" width="20" height="10" stroke="white" />
        <rect x="0" y="10" width="20" height="10" stroke="white" />
        <rect x="20" width="10" height="20" stroke="white" />
        <rect x="30" width="10" height="20" stroke="white" />
        <rect x="40" width="10" height="20" stroke="white" />
        <rect x="50" y="0" width="20" height="10" stroke="white" />
        <rect x="50" y="10" width="20" height="10" stroke="white" />
        <rect x="70" width="10" height="20" stroke="white" />
    </g>
</svg>
